<?xml version="1.0" encoding="UTF-8" standalone="no"?>
<svg
   version="1.1"
   width="595.27557pt"
   height="841.88977pt"
   id="svg16"
   viewBox="0 0 595.27557 841.88977"
   sodipodi:docname="apae-logo.cdr"
   xmlns:inkscape="http://www.inkscape.org/namespaces/inkscape"
   xmlns:sodipodi="http://sodipodi.sourceforge.net/DTD/sodipodi-0.dtd"
   xmlns="http://www.w3.org/2000/svg"
   xmlns:svg="http://www.w3.org/2000/svg">
  <defs
     id="defs20" />
  <sodipodi:namedview
     id="namedview18"
     pagecolor="#ffffff"
     bordercolor="#000000"
     borderopacity="0.25"
     inkscape:showpageshadow="2"
     inkscape:pageopacity="0.0"
     inkscape:pagecheckerboard="0"
     inkscape:deskcolor="#d1d1d1"
     inkscape:document-units="pt" />
  <g
     id="Layer1000">
    <path
       d="m 234.7128,518.8877 -1.595,4.5554 c -0.5132,1.5018 -1.2016,2.6534 -2.0651,3.4462 -0.8626,0.7927 -1.8787,1.1947 -3.0251,1.1947 -1.476,0 -2.6879,-0.465 -3.6385,-1.4061 -0.9498,-0.9402 -1.4199,-2.1246 -1.4199,-3.5513 0,-0.5711 0.044,-1.1102 0.1311,-1.6071 0.0871,-0.4968 0.2079,-0.9514 0.3822,-1.3638 l 12.1257,-31.8597 c 0.8747,-2.2937 1.978,-3.9749 3.2891,-5.0532 1.3103,-1.0679 2.9277,-1.6061 4.8505,-1.6061 1.8132,0 3.3866,0.5072 4.7193,1.532 1.3328,1.0256 2.3601,2.5058 3.0804,4.4398 l 11.8204,32.3885 c 0.2295,0.6875 0.4037,1.3008 0.5245,1.8287 0.1199,0.5392 0.1742,1.0153 0.1742,1.4277 0,1.4267 -0.4917,2.5895 -1.4751,3.4884 -0.9825,0.8979 -2.2393,1.3422 -3.7678,1.3422 -1.3768,0 -2.5137,-0.4123 -3.4203,-1.237 -0.9066,-0.8246 -1.6165,-2.0823 -2.1514,-3.7843 l -1.312,-4.175 z m 3.0157,-9.4715 h 11.132 l -5.3749,-16.7226 z m 40.9671,11.2364 c 0,2.4636 -0.4382,4.2923 -1.312,5.4862 -0.8729,1.1947 -2.2065,1.7968 -3.9982,1.7968 -1.802,0 -3.1347,-0.6021 -4.0085,-1.7968 -0.8747,-1.1939 -1.3112,-3.0226 -1.3112,-5.4862 v -31.1515 c 0,-2.7483 0.546,-4.6409 1.6277,-5.6665 1.0921,-1.036 2.9933,-1.5536 5.7028,-1.5536 h 9.5698 c 5.2645,0 9.4275,1.3742 12.4751,4.1328 3.0484,2.7595 4.5778,6.4912 4.5778,11.195 0,4.7883 -1.4319,8.5303 -4.2932,11.2364 -2.8518,2.706 -6.8172,4.0594 -11.8971,4.0594 h -7.133 z m 0,-17.072 h 4.5762 c 2.4041,0 4.2173,-0.496 5.4301,-1.5009 1.2129,-1.0041 1.8245,-2.4947 1.8245,-4.4709 0,-1.9978 -0.5909,-3.4781 -1.7701,-4.4399 -1.1913,-0.9618 -3.0148,-1.438 -5.4845,-1.438 h -4.5762 z m 33.1226,15.3071 -1.595,4.5554 c -0.5132,1.5018 -1.2016,2.6534 -2.065,3.4462 -0.8627,0.7927 -1.8788,1.1947 -3.0252,1.1947 -1.476,0 -2.6879,-0.465 -3.6385,-1.4061 -0.9498,-0.9402 -1.4199,-2.1246 -1.4199,-3.5513 0,-0.5711 0.044,-1.1102 0.1311,-1.6071 0.0872,-0.4968 0.2079,-0.9514 0.3822,-1.3638 l 12.1257,-31.8597 c 0.8747,-2.2937 1.978,-3.9749 3.2891,-5.0532 1.3104,-1.0679 2.9277,-1.6061 4.8505,-1.6061 1.8132,0 3.3866,0.5072 4.7194,1.532 1.3327,1.0256 2.3601,2.5058 3.0803,4.4398 l 11.8204,32.3885 c 0.2295,0.6875 0.4037,1.3008 0.5245,1.8287 0.1199,0.5392 0.1742,1.0153 0.1742,1.4277 0,1.4267 -0.4917,2.5895 -1.475,3.4884 -0.9825,0.8979 -2.2394,1.3422 -3.7679,1.3422 -1.3768,0 -2.5137,-0.4123 -3.4203,-1.237 -0.9066,-0.8246 -1.6165,-2.0823 -2.1513,-3.7843 l -1.3121,-4.175 z m 3.0157,-9.4715 h 11.132 l -5.3749,-16.7226 z m 49.5967,-27.1352 c 2.5232,0 4.4132,0.402 5.67,1.1948 1.2559,0.7927 1.89,2.0081 1.89,3.6359 0,1.5854 -0.6228,2.7802 -1.8685,3.5625 -1.2559,0.7824 -3.1459,1.1732 -5.6915,1.1732 h -8.6304 v 8.0551 h 7.4504 c 2.5343,0 4.4355,0.3907 5.6803,1.1731 1.2456,0.7824 1.8684,1.9875 1.8684,3.5945 0,1.6062 -0.6228,2.8009 -1.8684,3.573 -1.2448,0.7711 -3.146,1.1628 -5.6803,1.1628 h -7.4504 v 8.4665 h 8.9582 c 2.5568,0 4.4571,0.3916 5.6915,1.174 1.2344,0.7815 1.8572,1.9763 1.8572,3.5617 0,1.6071 -0.6228,2.8121 -1.8572,3.5945 -1.2344,0.7824 -3.1347,1.1732 -5.6915,1.1732 h -12.3879 c -2.7535,0 -4.6435,-0.4546 -5.6596,-1.3638 -1.0265,-0.9092 -1.5398,-2.6111 -1.5398,-5.1058 v -31.4163 c 0,-2.7371 0.546,-4.6297 1.6277,-5.6657 1.0921,-1.0256 2.9933,-1.5432 5.7028,-1.5432 z"
       style="fill:#1b1918;fill-rule:evenodd"
       id="path2" />
    <g
       id="Layer1001">
      <path
         d="m 295.833,383.9044 v 21.1392 c 0,3.6928 0,7.3861 0,11.0794 0,2.8779 -0.942,8.9781 1.8047,8.9781 h 0.1806 c 2.5854,0 1.6245,-6.6337 1.6245,-9.3598 0,-3.6303 0,-7.2596 0,-10.8888 v -20.9481 z m 6.3171,20.9943 c 0,0.3056 0.2404,0.6742 0.3607,0.902 3.7495,0 4.4552,0.1171 7.4622,-1.3814 1.664,-0.8291 3.9385,-2.7991 5.026,-4.1769 1.4659,-1.8572 6.1028,-9.7038 6.1028,-12.4798 v -0.1806 c 0,-0.4153 -0.126,-0.5413 -0.5419,-0.5413 -2.1438,0 -9.9347,5.1561 -11.6239,6.4215 -2.693,2.0178 -6.7859,6.9225 -6.7859,11.4365 z M 274.174,387.582 c 0,2.0798 4.2987,9.9742 5.4639,11.4958 1.9102,2.4956 6.1012,6.7229 10.2388,6.7229 h 2.5271 c 0.4867,0 0.722,-0.4804 0.722,-0.902 0,-4.5796 -4.0089,-9.416 -6.6768,-11.3656 -1.8104,-1.3226 -3.3137,-2.5224 -5.4166,-3.6062 -0.7298,-0.3764 -5.552,-2.8862 -6.1364,-2.8862 -0.3486,0 -0.722,0.3218 -0.722,0.5413 z"
         style="fill:#73b158;fill-rule:evenodd"
         id="path4" />
      <path
         d="m 308.8284,344.8318 c 0,1.1287 -0.2462,3.1271 -0.9026,3.6076 l 0.2227,-2.7019 c 0.2567,-3.192 -2.2926,-6.5719 -3.8735,-8.0803 -2.167,-2.0673 -4.8106,-2.7467 -8.9834,-2.7467 0.3566,-0.4862 0.9672,-0.7214 1.8047,-0.7214 h 0.5413 c 5.9264,0 11.1908,4.7455 11.1908,10.6427 z m -11.1908,14.2501 c 7.3332,0 13.898,-5.8844 13.898,-13.1681 v -1.623 c 0,-3.5185 -2.7209,-6.9465 -4.556,-8.7953 -2.0767,-2.093 -5.7253,-3.4707 -9.8833,-3.4707 -6.9572,0 -13.6465,6.4389 -13.3677,13.711 0.2863,7.4659 6.3392,13.3461 13.909,13.3461 z"
         style="fill:#f7a913;fill-rule:evenodd"
         id="path6" />
      <path
         d="m 305.7599,361.4269 c 0,3.142 3.4135,6.3596 4.5712,8.599 1.1693,2.2609 4.0257,6.012 7.341,6.012 h 1.6245 c 1.4928,0 4.4893,-2.231 5.3714,-3.11 0.9116,-0.9078 2.7509,-4.2267 2.7509,-5.9091 v -0.7219 c 0,-4.3518 -3.1147,-5.6056 -5.665,-7.5064 -2.1428,-1.5967 -5.6292,-4.0377 -9.1356,-4.0377 h -0.5413 c -1.5222,0 -1.1321,0.5634 -2.3093,0.9388 -1.0669,0.3397 -1.0102,0.8212 -1.7022,1.5453 -0.9179,0.9598 -2.3056,2.399 -2.3056,4.19 z m -18.0491,16.0539 c 0,1.9685 1.5993,4.3649 2.7366,5.2018 4.3449,3.1961 8.9398,3.8965 13.5457,0.4279 0.8915,-0.6715 2.3081,-2.6962 2.3081,-4.1868 v -3.0664 c 0,-0.5907 -1.6324,-9.8361 -1.8072,-10.2798 -1.3138,-3.3347 -2.4096,-4.872 -7.0364,-4.872 h -0.722 c -4.0561,0 -5.782,2.5591 -6.6815,5.7689 -0.4542,1.6198 -2.3433,8.6782 -2.3433,10.1043 z M 267.857,366.4775 v 0.1801 c 0,4.8947 6.9088,11.6517 12.3101,8.6951 2.3922,-1.309 3.6954,-3.9201 5.3032,-6.064 0.975,-1.3006 4.0456,-5.5074 4.0456,-7.321 v -0.1801 c 0,-3.2092 -3.7836,-7.2154 -6.8589,-7.2154 h -0.9026 c -1.9795,0 -6.6531,3.4218 -8.4178,4.3937 -2.7829,1.5332 -5.4796,3.289 -5.4796,7.5116 z m -0.5419,-11.364 h 1.2638 c 1.3263,0 7.6802,-1.1068 8.8185,-1.4686 3.0984,-0.9856 4.7183,-1.5169 4.7183,-5.7469 v -0.3607 c 0,-3.5694 -1.8346,-5.563 -4.7944,-6.212 -2.7325,-0.5986 -6.4358,-1.905 -9.1036,-1.905 h -0.722 c -3.269,0 -5.7048,4.2867 -5.9621,7.7595 -0.2862,3.8676 2.2662,7.9337 5.7815,7.9337 z m 0.5419,-23.9908 c 0,3.3993 1.7868,5.5216 4.5234,6.1218 2.0105,0.441 5.8524,2.7167 8.1107,2.7167 h 0.1806 c 3.0102,0 5.2344,-3.3935 5.2344,-6.4935 0,-0.6254 -1.2391,-2.9803 -1.729,-3.3227 -0.5608,-0.3922 -2.0509,-1.9847 -2.6479,-2.5849 -1.5254,-1.5331 -3.507,-4.0136 -6.2725,-4.0136 -2.1995,0 -3.8629,1.2513 -5.0102,2.3886 -0.8338,0.8269 -2.3895,3.6907 -2.3895,5.1876 z m 13.1754,-11.364 v 1.0822 c 0,2.1785 2.733,5.1598 3.7537,6.7108 1.0964,1.665 3.2297,4.6532 5.8125,4.6532 h 0.1806 c 2.2394,0 5.9564,-2.9084 5.9564,-5.2307 0,-1.9969 -1.1158,-6.2252 -1.5469,-8.556 -0.4363,-2.357 -2.8075,-4.6122 -5.4927,-4.6122 h -1.2633 c -3.2349,0 -7.4003,3.1935 -7.4003,5.9527 z m 17.6885,6.8542 v 0.722 c 0,2.2436 3.7925,4.87 6.1364,4.87 h 0.3613 c 2.0593,0 4.3995,-3.1693 5.3457,-4.5786 0.9104,-1.3557 3.6786,-4.6883 3.6786,-6.4247 v -1.2623 c 0,-2.7261 -4.0861,-6.1333 -6.4977,-6.1333 h -1.6246 c -2.9871,0 -5.3052,1.812 -5.7909,4.314 -0.3728,1.9207 -1.6088,6.7277 -1.6088,8.4929 z m 14.9806,13.1682 h 2.1659 c 1.2801,0 4.9362,-1.9486 6.2772,-2.3849 2.3827,-0.775 3.9532,-1.4649 4.892,-3.7689 1.7716,-4.3465 -2.6159,-9.9001 -6.6568,-9.9001 h -0.7219 c -3.0533,0 -6.7078,4.8201 -8.5282,6.6289 -3.4874,3.4655 -0.0813,9.425 2.5718,9.425 z m -0.5413,7.0348 v 0.9021 c 0,3.0023 1.8025,5.3525 4.3701,5.7337 2.5103,0.3722 6.222,1.4812 8.8054,1.4812 h 1.9858 c 3.5216,0 5.2338,-4.1864 5.2338,-7.9369 v -0.1801 c 0,-4.1412 -2.9362,-7.2155 -7.2196,-7.2155 -1.1337,0 -2.8275,0.5487 -4.3245,0.7288 -0.7451,0.0898 -1.0743,0.6175 -1.8193,0.7073 -1.2628,0.1523 -1.1148,0.1034 -2.156,0.3707 -1.4911,0.3817 -2.4546,0.6999 -3.2517,1.801 -0.6705,0.9267 -1.624,2.0236 -1.624,3.6077 z"
         style="fill:#ffd400;fill-rule:evenodd"
         id="path8" />
      <path
         d="m 332.3981,400.1027 c 0.3218,1.8241 0.5172,3.5694 0.7965,5.3373 0.2862,1.8131 0.4447,3.6104 0.7897,5.5237 0.2032,1.13 0.3061,4.7576 1.3762,4.7576 0.4342,0 11.2758,-5.4995 12.9707,-6.1574 1.006,-0.3901 2.1995,-1.0087 3.3373,-1.5348 1.1305,-0.5229 0.9089,-2.2278 0.8454,-3.8587 -0.1171,-3.0028 -0.3681,-5.9075 -0.3681,-9.1928 v -1.0822 c 0,-0.9425 8.043,-16.7297 9.0301,-18.3936 2.347,-3.9543 2.2767,-5.32 2.7004,-11.0101 0.2982,-3.9978 1.0848,-8.5748 1.0848,-12.6252 v -1.0822 c 0,-1.7526 -8.0435,-14.1584 -9.4218,-16.3783 -1.6881,-2.7194 -3.1772,-5.404 -4.8731,-8.1176 -1.33,-2.1275 -3.2066,-6.5297 -6.2814,-6.5297 h -0.722 c -2.4111,0 -4.3318,2.0026 -4.3318,4.3292 0,2.1911 5.341,11.7557 6.4977,14.0697 0.6758,1.3509 6.859,13.2395 6.859,13.5288 v 0.1801 c 0,0.8695 -2.4941,7.8697 -2.8884,9.3798 -0.3371,1.2911 -2.4867,8.7434 -3.2486,9.019 l 1.1767,-8.4646 c -0.0924,-0.0215 -0.973,-10.5386 -1.1048,-11.2689 -0.5082,-2.8165 0.0856,-2.5702 -1.3699,-4.7634 -0.639,-0.963 -2.0845,-2.3796 -3.5751,-2.3796 -0.3755,0 -2.1297,0.7781 -2.4862,1.1226 -0.7057,0.6815 -1.0475,0.9582 -1.3752,2.053 -0.5124,1.7143 -0.6694,4.3097 -0.6516,6.3843 0.0378,4.3123 -0.556,9.3771 -0.5408,13.5288 0.0173,4.7939 -1.6692,7.5063 -2.6337,11.4375 -0.8291,3.3814 -2.6007,7.3431 -2.6007,11.4711 v 5.4114 c 0,0.7545 0.7929,4.0844 1.0087,5.3052 z m 1.3378,-70.9642 v 1.2628 c 0,1.09 6.8705,11.6696 7.761,12.266 -0.2457,-2.9493 -5.9558,-11.3262 -5.9558,-14.2502 0,-0.5183 0.3607,-0.4873 0.3607,-1.6235 -1.1462,0.0257 -2.1659,1.2118 -2.1659,2.3449 z m 2.8879,-1.6235 v 0.3607 c 0,0.5277 11.4737,20.6514 12.0928,21.105 -0.994,-4.264 -9.9269,-20.2208 -9.9269,-22.3678 v -1.0821 c 0,-0.7819 0.2872,-0.5566 0.3612,-1.4429 -1.7411,0 -2.5271,1.7059 -2.5271,3.4271 z m -93.6749,39.1426 c 0,-1.7558 1.2712,-6.7203 1.6996,-8.5827 0.638,-2.7713 0.9441,-6.085 1.7065,-8.577 0.6878,-2.2504 1.3205,-6.0235 1.7569,-8.5255 0.5397,-3.0937 -0.3303,-6.6027 -3.1772,-6.6027 h -1.4439 c -3.5327,0 -4.1628,3.8981 -4.9819,6.7461 -0.8947,3.1094 -1.614,5.9736 -2.4914,9.0547 -0.8826,3.1011 -1.7805,6.0913 -2.6369,9.0889 -0.5786,2.0257 -2.3439,7.1756 -2.3439,9.2023 v 0.9016 c 0,1.1451 3.2245,9.5677 3.844,11.1303 1.3789,3.4786 2.4006,7.8093 4.7718,10.2026 2.5193,2.5429 4.8543,5.1241 6.9088,8.0671 0.7084,1.0149 6.1344,8.3212 6.1344,8.841 0,1.1415 -0.5414,1.779 -0.5414,3.0664 v 0.5414 c 0.8391,0.2236 7.4024,3.9117 8.5549,4.6179 1.308,0.8013 7.4933,4.4011 8.7718,4.4011 1.0281,-4.4105 2.5271,-11.8575 2.5271,-16.9559 v -0.5408 c 0,-5.2013 -7.6812,-18.6735 -9.7468,-23.6301 -1.4549,-3.4917 -2.7818,-9.038 -3.9427,-12.8352 -0.546,-1.7874 -1.3331,-4.6521 -2.0372,-6.2609 -2.5345,-5.7947 -8.6269,-4.1717 -8.6143,1.9595 0.003,1.5584 1.0685,5.8151 1.3736,7.6213 0.3823,2.2662 0.9131,5.4303 1.5983,7.4213 0.6821,1.9801 2.1643,4.3812 2.598,6.2425 -0.5954,-0.2152 -10.2881,-15.1303 -10.2881,-16.0539 z m 9.9274,-25.4337 -0.031,1.6188 -2.1333,12.9628 0.1785,0.0294 c 0.8527,-0.6243 1.8845,-4.7985 2.2373,-6.2419 0.3823,-1.5621 1.9139,-5.2964 1.9139,-6.5649 v -1.0827 c 0,-1.2198 -1.2596,-2.8858 -2.1654,-2.8858 h -0.722 c 0.0268,1.2187 0.722,1.0685 0.722,2.1643 z m -4.3318,-3.6077 c 0,0.6647 1.0843,1.3447 0.8706,2.8411 -0.1581,1.1085 -0.3691,2.083 -0.5886,3.2134 -0.4416,2.2752 -0.597,4.3093 -1.0475,6.5292 -0.649,3.1993 -1.9422,9.7678 -1.9422,13.2112 0.5576,-0.6411 5.7757,-20.8314 5.7757,-22.728 v -0.7219 c 0,-0.9483 -1.5967,-2.7057 -2.346,-2.7057 h -0.1806 c -0.2957,0 -0.5414,0.1082 -0.5414,0.3607 z"
         style="fill:#d4d2ce;fill-rule:evenodd"
         id="path10" />
      <path
         d="m 240.2417,420.5918 c 0,2.4784 2.0104,6.6742 3.7904,6.6742 h 0.1806 c 1.8771,0 3.6099,-4.0557 3.6099,-6.3134 v -0.5414 c 0,-2.3013 -1.6971,-9.3798 -3.0685,-9.3798 -1.3615,0 -4.5124,7.0454 -4.5124,9.5604 z m 66.7815,34.4528 c 0,3.0758 2.5014,5.8182 4.106,7.4412 0.858,0.8674 5.8697,4.4641 7.0847,4.4641 0.2983,0 0.5855,-0.5182 0.722,-0.7214 0,-4.1087 -0.9057,-8.6169 -2.283,-11.4276 -1.173,-2.3948 -4.3418,-5.8891 -7.6444,-5.8891 -1.2465,0 -1.9853,4.4027 -1.9853,6.1328 z m -29.6006,11.9053 c 1.11,0 5.76,-3.6434 6.787,-4.4011 1.4177,-1.047 4.0425,-4.8091 4.0425,-7.1435 v -2.1649 c 0,-1.0616 -0.9871,-4.3286 -1.9853,-4.3286 -3.3047,0 -5.8371,3.1147 -7.1834,5.2669 -1.2092,1.9318 -2.5628,6.7954 -2.5628,9.8849 v 1.8036 c 0,0.4873 0.0861,0.4978 0.1801,0.9021 0.5124,0.1192 0.3087,0.1806 0.7219,0.1806 z m 41.5133,-16.2345 c 0,3.5358 2.408,6.2236 4.4809,7.7878 1.4361,1.0837 6.5192,3.3956 8.8752,3.3956 0.2195,0 0.5413,-0.3728 0.5413,-0.7209 0,-2.2925 -2.7203,-7.676 -3.7537,-9.2365 -1.6319,-2.4646 -4.2735,-4.6531 -8.339,-4.6531 h -0.5414 c -0.9351,0 -1.2633,2.4757 -1.2633,3.4271 z m -55.5913,11.1834 c 2.085,0 7.3146,-2.4736 8.6672,-3.4235 2.0299,-1.425 4.3281,-4.1611 4.3281,-7.5793 v -0.5413 c 0,-1.1158 -0.2341,-3.0664 -1.2633,-3.0664 h -1.8052 c -5.8376,0 -9.6244,8.7192 -10.8294,13.8896 0.2105,0.3974 0.1575,0.7209 0.7219,0.7209 z m -9.9269,-5.7721 c 6.9419,0 12.9953,-2.9445 12.9953,-9.7405 v -0.1801 c 0,-1.2974 -1.6088,-1.6235 -2.8878,-1.6235 h -0.5419 c -3.4759,0 -6.3055,2.0499 -8.0771,3.8325 -0.9666,0.9724 -4.7377,5.5762 -4.7377,6.9902 0,0.4221 0.2999,0.7214 0.722,0.7214 z m 75.4451,-10.1012 c 0,7.1078 5.9443,10.1012 13.176,10.1012 h 2.1654 c 0.4878,0 0.4977,-0.0861 0.9026,-0.1801 v -0.7214 c 0,-1.477 -3.6597,-5.7316 -4.6479,-6.7193 -1.5154,-1.5143 -4.389,-3.9233 -7.2643,-3.9233 h -0.5414 c -1.4124,0 -3.7904,0.1654 -3.7904,1.4429 z m -82.8454,4.3292 c 5.3,0 10.6488,-3.6561 10.6488,-8.6584 0,-1.122 -3.0669,-1.9842 -4.1511,-1.9842 h -0.722 c -2.6369,0 -5.98,2.2242 -7.5473,3.4607 -0.9304,0.7346 -5.0868,4.8721 -5.0868,5.9191 0,1.0454 4.0535,1.2628 5.4144,1.2628 z m 92.7723,-8.6584 c 0,5.5741 5.4785,8.6584 11.3708,8.6584 1.7422,0 5.9564,0.1207 5.9564,-1.6235 0,-0.7661 -4.3397,-5.0485 -5.162,-5.6644 -1.6235,-1.2161 -4.6237,-3.3547 -7.2921,-3.3547 h -0.7219 c -1.182,0 -4.1512,0.764 -4.1512,1.8041 z m 13.4065,-13.4779 c -1.8839,1.696 -3.5788,3.3757 -5.6481,4.8175 -4.5875,3.1961 -8.1659,5.1257 -13.7142,7.3982 -4.9887,2.0435 -10.6326,3.3604 -16.6819,4.4331 -2.4631,0.4363 -6.7345,1.162 -9.3131,1.1541 -1.4513,-0.004 -3.2675,0.1864 -5.0501,0.1848 -2.482,-0.003 -3.5415,0.9016 -4.3312,0.9016 -0.0258,0 -1.5075,-0.6543 -1.9438,-0.7629 -0.7614,-0.1901 -1.5584,-0.1392 -2.5687,-0.1387 -2.1044,0 -3.2317,-0.0672 -4.9114,-0.3229 -1.5579,-0.2368 -3.2775,-0.2105 -4.8154,-0.4185 -1.2806,-0.1732 -3.5684,-0.6321 -4.535,-0.6993 -4.4473,-0.3067 -12.8641,-2.9457 -16.5275,-4.4064 -8.9287,-3.5599 -19.5051,-10.1852 -23.7188,-18.1437 0.345,-0.7188 0.722,-2.1637 0.722,-3.247 v -1.0821 c 0,-2.849 -1.5553,-5.4339 -2.8559,-7.0674 -0.6915,-0.8695 -4.043,-4.6573 -5.0858,-4.6573 -1.0028,0 -1.6492,5.971 -1.4056,7.5373 0.4101,2.64 0.7813,4.8589 2.3487,6.4914 0.7419,0.7718 1.5515,1.5589 2.5129,1.9984 0.8895,0.4069 2.5508,0.7009 2.9745,1.3562 1.0108,1.5616 2.5623,3.7726 3.8094,5.0317 6.3669,6.4279 12.0644,10.4788 21.2347,14.1327 8.7628,3.4912 17.932,5.2612 29.3528,6.0199 3.3446,0.2221 3.7883,1.4723 3.7883,5.0527 0,2.8899 -0.1832,6.1018 -0.1848,8.6541 -0.002,2.9472 0.004,5.8955 0.004,8.8427 0,2.4478 -1.0192,6.8547 1.6245,6.8547 h 0.722 c 0.8921,0 1.624,-0.732 1.624,-1.6235 v -4.87 c 0,-5.363 -0.1801,-10.3118 -0.1801,-15.5131 0,-9.1744 0.6207,-6.3926 8.0141,-7.6833 2.3854,-0.4169 4.6852,-0.4862 7.0411,-0.9004 2.4127,-0.4243 4.2247,-0.7477 6.5004,-1.2602 3.7495,-0.8448 8.7313,-2.2688 11.8355,-3.6839 7.7925,-3.5536 13.3456,-6.3937 19.0866,-12.1311 1.4272,-1.4261 2.4873,-2.5681 3.7275,-4.2115 1.446,-1.9176 1.5048,-3.0265 4.0435,-3.7154 3.6576,-0.9934 5.8109,-4.9293 5.8109,-9.7059 v -0.18 c 0,-1.5206 -0.2667,-6.4935 -1.4439,-6.4935 -0.984,0 -4.3329,3.8608 -5.0049,4.7387 -1.0712,1.3993 -2.9367,4.494 -2.9367,6.8054 v 1.2627 c 0,1.434 0.7219,2.2962 0.7219,3.247 0,0.5456 -4.0272,5.4492 -4.6426,6.0031 z m -59.0704,9.1488 c 0,1.8629 0.5812,3.4995 1.2654,4.6878 0.3323,0.5775 2.2047,2.8884 2.8857,2.8884 h 0.5414 c 1.3588,0 3.9705,-4.2274 3.9705,-6.1333 v -1.9837 c 0,-2.3109 -2.8658,-9.1997 -4.3312,-9.1997 -0.7645,0 -2.5067,3.3898 -2.8879,4.1485 -0.7955,1.582 -1.4439,3.2161 -1.4439,5.592 z m 15.3413,7.0348 c 1.0533,0 2.6548,-2.4284 3.1294,-3.3662 0.7425,-1.4654 0.9257,-3.3268 0.5934,-5.2244 -0.3419,-1.9496 -3.2218,-8.3653 -4.4447,-8.3653 h -0.1807 c -1.435,0 -3.4292,7.595 -3.4292,9.9211 0,2.8936 2.0278,7.0348 4.3318,7.0348 z m -25.4489,-6.1328 c 0,2.1969 2.2342,6.1328 4.1512,6.1328 1.7327,0 3.9706,-3.8829 3.9706,-6.3134 v -2.1643 c 0,-1.9254 -2.2762,-8.4782 -3.4292,-8.4782 -0.7278,0 -2.9436,3.8062 -3.2245,4.5339 -0.7734,2.0031 -1.4681,3.3037 -1.4681,6.1086 z m 31.044,-2.3449 c 0,1.6177 0.691,3.9375 1.3337,4.9802 0.4957,0.8034 2.2027,2.9567 3.1788,2.9567 1.5615,0 3.7904,-4.2578 3.7904,-6.1333 v -0.9015 c 0,-2.9457 -4.0509,-10.6431 -5.5951,-10.6431 -1.1305,0 -2.7078,6.526 -2.7078,8.1175 z m -37.1809,7.9369 c 0.7939,0 2.8033,-2.3838 3.1924,-3.1231 0.7356,-1.3983 1.1394,-2.9325 1.1394,-4.9944 v -1.6235 c 0,-1.6162 -1.5369,-7.9369 -2.7073,-7.9369 -0.5639,0 -3.0391,3.8288 -3.4323,4.5066 -0.7713,1.3305 -1.9827,3.7075 -1.9827,5.7752 v 1.0827 c 0,2.3098 2.157,6.3134 3.7905,6.3134 z m 70.9327,-7.2155 c 0,2.7278 4.4877,6.1328 7.4003,6.1328 h 2.5271 c 1.7569,0 8.8437,-2.399 8.8437,-3.6072 v -0.1806 c 0,-0.8333 -4.2604,-3.2806 -5.1745,-3.6671 -2.126,-0.8984 -3.9658,-1.7442 -6.9183,-1.7442 h -0.1806 c -2.1628,0 -6.4977,1.6135 -6.4977,3.0663 z m -108.1137,6.1328 c 3.1709,0 7.761,-3.1325 7.761,-5.772 v -0.5414 c 0,-1.0464 -4.0708,-2.8857 -5.7757,-2.8857 h -1.4439 c -3.026,0 -11.5515,3.7831 -11.5515,5.5919 0,1.3804 7.5589,3.6072 9.7468,3.6072 z m 83.5674,-8.4777 c 0,2.5004 2.4568,7.0348 4.1512,7.0348 h 0.1806 c 2.0756,0 3.7899,-4.41 3.7899,-7.0348 0,-2.8448 -4.1228,-10.4625 -5.5951,-10.4625 h -0.1806 c -0.901,0 -2.346,5.8125 -2.346,7.0354 z m -55.5914,7.0348 c 2.4469,0 4.5125,-5.0443 4.5125,-8.2976 v -0.1801 c 0,-1.9979 -1.2807,-9.0196 -2.5272,-9.0196 -1.4171,0 -5.5951,7.4234 -5.5951,10.1018 v 1.4429 c 0,1.9679 2.1465,5.9526 3.4292,5.9526 z m -8.3028,-3.247 c 2.2089,0 4.3318,-4.9204 4.3318,-7.9369 v -0.1801 c 0,-2.0582 -1.3048,-9.3798 -2.5266,-9.3798 -0.9704,0 -3.3437,3.7999 -3.7931,4.6873 -0.9367,1.8493 -1.802,3.7017 -1.802,6.4961 0,2.1145 2.1937,6.3134 3.7899,6.3134 z m 80.3188,-12.8069 c 0,3.0669 2.2567,7.9369 4.6925,7.9369 1.3127,0 3.4292,-3.8193 3.4292,-5.4118 v -2.5251 c 0,-2.3181 -4.3948,-9.5604 -5.7752,-9.5604 -0.8811,0 -2.3465,6.7298 -2.3465,8.2977 z m -88.6212,7.9369 c 1.1578,0 2.8884,-2.2084 3.372,-3.1241 0.828,-1.5679 1.1405,-2.8632 1.1405,-5.1735 v -0.5413 c 0,-2.4846 -1.0365,-7.7815 -2.3466,-8.6584 -2.3313,1.5605 -5.7757,6.9761 -5.7757,11.0033 0,2.1969 1.781,6.494 3.6098,6.494 z m 111.7241,-0.5413 c 2.9377,0 10.1075,-3.8556 10.1075,-5.7721 0,-1.1835 -5.9721,-2.7056 -7.5809,-2.7056 h -2.1659 c -1.812,0 -3.7337,0.5649 -4.8395,1.2958 -0.7698,0.5083 -2.9215,2.2116 -2.9215,3.2134 0,1.3395 3.7731,3.9685 5.5951,3.9685 z m -140.4221,-5.592 c 0,0.7567 3.5883,3.226 4.3318,3.6078 1.7564,0.9026 3.2502,1.9842 5.9564,1.9842 h 1.624 c 1.8341,0 5.5956,-2.3418 5.5956,-3.9685 v -0.1801 c 0,-1.5137 -4.4068,-4.3291 -6.3176,-4.3291 h -3.2485 c -1.7816,0 -7.9417,1.5095 -7.9417,2.7056 z m 111.9042,-6.6741 c -1.5369,1.0292 -2.6626,6.9319 -2.7162,9.7358 -0.0546,2.8648 2.3859,7.9416 4.3407,7.9416 h 0.1807 c 1.4103,0 3.6098,-3.9086 3.6098,-5.772 v -2.345 c 0,-2.5565 -3.7957,-8.4766 -5.415,-9.5604 z m 13.176,-0.1801 c 0,2.5482 1.5999,7.0349 3.7904,7.0349 1.8404,0 3.79,-3.9149 3.79,-6.4941 v -0.5408 c 0,-2.5602 -2.9215,-9.1561 -4.8732,-9.1997 -0.765,2.8632 -2.7072,4.8422 -2.7072,9.1997 z"
         style="fill:#73b158;fill-rule:evenodd"
         id="path12" />
    </g>
  </g>
</svg>
